# xmcd CD database file
#
# Track frame offsets:
#	182
#	13110
#	26537
#	39162
#	54042
#	68082
#	81752
#	92597
#	105805
#	116747
#
# Disc length: 1707 seconds
#
# Revision: 3
# Processed by: cddbd v1.5.2PL0 Copyright (c) Steve Scherf et al.
# Submitted via: CDex 1.51
#
DISCID=6606a90a
DTITLE=Muddy Waters - Rock Me
DYEAR=1900
DGENRE=Blues
TTITLE0=Forty Days And Forty Nights
TTITLE1=Rollin' And Tumblin'
TTITLE2=All Aboard
TTITLE3=Rock Me
TTITLE4=Rollin' Stone
TTITLE5=I'm Ready
TTITLE6=Standing Around Crying
TTITLE7=She Moves Me
TTITLE8=I Feel So Good
TTITLE9=Goin' Home
EXTD=
EXTT0=
EXTT1=
EXTT2=
EXTT3=
EXTT4=
EXTT5=
EXTT6=
EXTT7=
EXTT8=
EXTT9=
PLAYORDER=
